<?xml version="1.0" encoding="UTF-8"?>
<svg width="611px" height="389px" viewBox="0 0 611 389" version="1.1" xmlns="http://www.w3.org/2000/svg" xmlns:xlink="http://www.w3.org/1999/xlink">
    <!-- Generator: Sketch 52.5 (67469) - http://www.bohemiancoding.com/sketch -->
    <title>bbcard</title>
    <desc>Created with Sketch.</desc>
    <defs>
        <rect id="path-1" x="0" y="0" width="367.792208" height="590" rx="21.0920263"></rect>
        <filter x="-5.3%" y="-2.3%" width="110.6%" height="106.6%" filterUnits="objectBoundingBox" id="filter-3">
            <feOffset dx="0" dy="6" in="SourceAlpha" result="shadowOffsetOuter1"></feOffset>
            <feGaussianBlur stdDeviation="5.5" in="shadowOffsetOuter1" result="shadowBlurOuter1"></feGaussianBlur>
            <feColorMatrix values="0 0 0 0 0   0 0 0 0 0   0 0 0 0 0  0 0 0 0.119961504 0" type="matrix" in="shadowBlurOuter1"></feColorMatrix>
        </filter>
        <polygon id="path-4" points="1.14280334e-05 0.0551614724 31.2911096 0.0551614724 31.2911096 44.916315 1.14280334e-05 44.916315"></polygon>
        <polygon id="path-6" points="0.00207418806 0.0551614724 31.2931724 0.0551614724 31.2931724 44.916315 0.00207418806 44.916315"></polygon>
        <polygon id="path-8" points="0.0127136871 0.0212757269 31.303869 0.0212757269 31.303869 32.3197955 0.0127136871 32.3197955"></polygon>
        <polygon id="path-10" points="0.0125822648 0.00836546982 27.7257804 0.00836546982 27.7257804 44.8492853 0.0125822648 44.8492853"></polygon>
    </defs>
    <g id="Page-1" stroke="none" stroke-width="1" fill="none" fill-rule="evenodd">
        <g id="Artboard" transform="translate(-209.000000, -175.000000)">
            <g id="bbcard" transform="translate(213.513535, 184.649481)">
                <g id="Tarjeta" transform="translate(295.000000, 184.500000) scale(-1, 1) rotate(90.000000) translate(-295.000000, -184.500000) translate(110.500000, -110.500000)">
                    <g id="Group-5" transform="translate(0.000000, 0.000000)">
                        <g id="Group" transform="translate(184.792208, 295.000000) scale(-1, 1) translate(-184.792208, -295.000000) translate(0.792208, 0.000000)">
                            <mask id="mask-2" fill="white">
                                <use xlink:href="#path-1"></use>
                            </mask>
                            <g id="Rectangle-4">
                                <use fill="black" fill-opacity="1" filter="url(#filter-3)" xlink:href="#path-1"></use>
                                <use fill="#614AD9" fill-rule="evenodd" xlink:href="#path-1"></use>
                            </g>
                            <g id="Group-11" mask="url(#mask-2)">
                                <g transform="translate(59.848736, 495.768322) rotate(-270.000000) translate(-59.848736, -495.768322) translate(-3.651264, 475.768322)" id="Visa_Inc._logo">
                                    <g transform="translate(0.119894, 0.000000)">
                                        <polygon id="polygon9" fill="#FFFFFF" fill-rule="nonzero" points="53.7865939 39.5973154 43.4568472 39.5973154 49.9178109 0.989932886 60.2469927 0.989932886"></polygon>
                                        <path d="M89.8766612,1.63191236 C87.9283928,0.85633395 84.8382781,0 81.0173601,0 C71.2630546,0 64.3941524,5.21930123 64.3520219,12.6813302 C64.2710016,18.1867988 69.2699549,21.2446697 73.0087722,23.0803679 C76.8302303,24.9561728 78.129256,26.1805136 78.129256,27.8525327 C78.0903663,30.4204506 75.0413018,31.6041426 72.1974888,31.6041426 C68.2539602,31.6041426 66.1409504,30.9938692 62.9298453,29.5652006 L61.6291992,28.9527592 L60.2469927,37.5572895 C62.5636335,38.6163253 66.8317836,39.5561247 71.2630546,39.5973154 C81.627173,39.5973154 88.3745446,34.4587698 88.4544847,26.5067877 C88.4939146,22.1432784 85.8542728,18.7997821 80.163406,16.0676432 C76.7086999,14.3137846 74.5929894,13.1311765 74.5929894,11.3366691 C74.6334996,9.70529876 76.3824581,8.03436359 80.2822358,8.03436359 C83.4933409,7.95252408 85.8526524,8.72701852 87.6399605,9.50205494 L88.5333445,9.90908456 L89.8766612,1.63191236 L89.8766612,1.63191236 L89.8766612,1.63191236 Z" id="path11" fill="#FFFFFF" fill-rule="nonzero"></path>
                                        <path d="M104.645393,25.9204442 C105.484085,23.7024699 108.711324,15.1182598 108.711324,15.1182598 C108.669,15.2006901 109.548346,12.8593434 110.051227,11.422 L110.762946,14.7486885 C110.762946,14.7486885 112.691492,23.990157 113.110282,25.9204442 L104.645393,25.9204442 L104.645393,25.9204442 Z M117.21631,0.989932886 L109.338951,0.989932886 C106.909751,0.989932886 105.064182,1.68758761 104.016096,4.19324893 L88.8890056,39.5973154 L99.5748136,39.5973154 C99.5748136,39.5973154 101.334062,34.8321918 101.712198,33.8059078 L114.787666,33.8059078 C115.080039,35.1613669 116.002823,39.5973154 116.002823,39.5973154 L125.432263,39.5973154 L117.21631,0.989932886 L117.21631,0.989932886 L117.21631,0.989932886 Z" id="path13" fill="#FFFFFF" fill-rule="nonzero"></path>
                                        <path d="M35.7579854,0.989932886 L25.8835122,27.3444211 L24.8044824,21.9994225 C22.9788986,15.8319902 17.2534795,9.13120573 10.8642118,5.79939337 L19.9088742,39.5973154 L30.5712542,39.5973154 L46.419814,0.989932886 L35.7579854,0.989932886 L35.7579854,0.989932886 L35.7579854,0.989932886 Z" id="path15" fill="#FFFFFF" fill-rule="nonzero"></path>
                                        <path d="M16.5308181,0.989932886 L0.167404913,0.989932886 L0,1.76256406 C12.7644856,4.93581273 21.2181556,12.5848073 24.6913905,21.7785235 L21.1341751,4.20427321 C20.548536,1.76202338 18.7487941,1.07049415 16.5308181,0.989932886 L16.5308181,0.989932886 Z" id="path17" fill="#FAA61A" fill-rule="nonzero"></path>
                                    </g>
                                </g>
                            </g>
                        </g>
                        <g id="Group-10" transform="translate(168.201153, 86.175250) rotate(-90.000000) translate(-168.201153, -86.175250) translate(134.201153, 53.675250)">
                            <path d="M9.5675356,0.141059139 L59.800994,0.141059139 C64.1692957,0.141059139 67.7105039,3.68226732 67.7105039,8.05056898 L67.7105039,55.2849844 C67.7105039,59.6532861 64.1692957,63.1944943 59.800994,63.1944943 L9.5675356,63.1944943 C5.19923394,63.1944943 1.65802576,59.6532861 1.65802576,55.2849844 L1.65802576,8.05056898 C1.65802576,3.68226732 5.19923394,0.141059139 9.5675356,0.141059139 Z" id="Rectangle-7" fill="#B3BAC8"></path>
                            <path d="M59.6040634,0.666504432 L8.26327357,0.666504432 C3.75969552,0.666504432 0.156833073,4.26955787 0.156833073,8.77337466 L0.156833073,56.063451 C0.156833073,60.4922042 3.75969552,64.1703212 8.26327357,64.1703212 L59.6040634,64.1703212 C64.0325818,64.1703212 67.7105039,60.5672678 67.7105039,56.063451 L67.7105039,8.77337466 C67.7105039,4.26955787 64.1076414,0.666504432 59.6040634,0.666504432 Z M44.1417787,53.4362245 C47.369343,50.43368 49.2458339,46.155054 49.2458339,41.5761736 C49.2458339,41.5761736 49.2458339,41.50111 49.2458339,41.50111 L65.0834167,41.50111 L65.0834167,53.4362245 L44.1417787,53.4362245 Z M28.3792555,53.4362245 C24.1008564,51.1843161 21.3236499,46.6054357 21.3236499,41.5761736 C21.3236499,38.5736291 22.2994252,35.7212118 24.1008564,33.3191762 C24.175916,33.2441126 24.175916,33.0939853 24.175916,33.0189217 C24.2509757,32.8687945 24.3260353,32.7186673 24.3260353,32.5685401 C24.3260353,32.4184128 24.2509757,32.2682856 24.175916,32.1181584 C24.1008564,32.0430948 24.175916,31.8929675 24.1008564,31.8179039 C22.2994252,29.4909319 21.3236499,26.6385146 21.3236499,23.5609065 C21.3236499,18.3064535 24.2509757,13.6525095 28.7545537,11.4756647 L65.0834167,11.4756647 L65.0834167,23.4107792 L47.8947605,23.4107792 C47.2192237,23.4107792 46.6187467,23.9362245 46.543687,24.6117971 C46.3185081,27.1639599 45.4177925,29.5659955 43.9916595,31.5176495 C43.466242,31.9680311 43.466242,32.7186673 43.8415402,33.3191762 C45.6429714,35.7212118 46.6187467,38.5736291 46.6187467,41.5761736 C46.6187467,46.6054357 43.8415402,51.2593797 39.5631411,53.4362245 L28.3792555,53.4362245 Z M18.846682,38.8738836 L2.78392027,38.8738836 L2.78392027,26.1130693 L18.7716224,26.1130693 C19.1469205,28.4400413 20.0476361,30.6168861 21.3236499,32.5685401 C20.1226958,34.4451304 19.2219802,36.5469116 18.846682,38.8738836 Z M18.6215031,23.4107792 L2.78392027,23.4107792 L2.78392027,11.4756647 L23.9507371,11.4756647 C20.6481132,14.4031457 18.6215031,18.7568352 18.6215031,23.4107792 Z M2.78392027,41.50111 L18.6215031,41.50111 C18.6215031,41.50111 18.6215031,41.5761736 18.6215031,41.5761736 C18.6215031,46.155054 20.5730536,50.43368 23.7255582,53.4362245 L2.78392027,53.4362245 L2.78392027,41.50111 Z M46.543687,32.5685401 C47.8197008,30.6168861 48.7204164,28.4400413 49.0957146,26.1130693 L65.0834167,26.1130693 L65.0834167,38.8738836 L49.020655,38.8738836 C48.6453568,36.6219752 47.8197008,34.4451304 46.543687,32.5685401 Z M65.0834167,8.77337466 L35.2847419,8.77337466 L35.2847419,3.29373089 L59.6040634,3.29373089 C62.6064488,3.29373089 65.0834167,5.77083013 65.0834167,8.77337466 Z M8.26327357,3.29373089 L32.5825951,3.29373089 L32.5825951,8.77337466 L2.78392027,8.77337466 C2.78392027,5.77083013 5.2608882,3.29373089 8.26327357,3.29373089 Z M2.85897991,56.1385146 L32.6576547,56.1385146 L32.6576547,61.5430948 L8.26327357,61.5430948 C5.2608882,61.5430948 2.85897991,59.0659955 2.85897991,56.1385146 Z M59.6040634,61.5430948 L35.2847419,61.5430948 L35.2847419,56.1385146 L39.8633796,56.1385146 C39.8633796,56.1385146 39.8633796,56.1385146 39.8633796,56.1385146 C39.8633796,56.1385146 39.8633796,56.1385146 39.8633796,56.1385146 L65.0083571,56.1385146 C65.0083571,59.0659955 62.6064488,61.5430948 59.6040634,61.5430948 Z" id="0" fill="#6A7587" fill-rule="nonzero" opacity="0.5"></path>
                        </g>
                    </g>
                </g>
                <path d="M67.8954951,256.675325 L67.8954951,251.772626 L54.9653003,251.772626 L54.9653003,247.785816 C57.2101258,243.547585 60.101461,238.932224 65.7225041,230.761059 L72.3133117,230.761059 L72.3133117,247.98336 L75.7972808,247.98336 L75.7972808,251.772626 L72.3133117,251.772626 L72.3133117,256.675325 L67.8954951,256.675325 Z M59.1676136,247.965402 L59.1676136,248.091112 L67.9673295,248.091112 L67.9673295,234.191153 L67.8954951,234.191153 C63.7111404,240.261161 61.2328531,244.086343 59.1676136,247.965402 Z M89.0746753,256.675325 L89.0746753,235.178876 L88.9669237,235.178876 L82.2683644,239.88403 L82.2683644,235.520089 L89.0387581,230.761059 L93.6182021,230.761059 L93.6182021,256.675325 L89.0746753,256.675325 Z M110.074269,256.675325 L110.074269,235.178876 L109.966518,235.178876 L103.267959,239.88403 L103.267959,235.520089 L110.038352,230.761059 L114.617796,230.761059 L114.617796,256.675325 L110.074269,256.675325 Z M131.073864,256.675325 L131.073864,235.178876 L130.966112,235.178876 L124.267553,239.88403 L124.267553,235.520089 L131.037946,230.761059 L135.61739,230.761059 L135.61739,256.675325 L131.073864,256.675325 Z M188.170252,257.196124 C183.411222,257.196124 179.693791,254.358665 178.957488,250.192269 L183.55489,250.192269 C184.129566,252.149756 185.979302,253.442776 188.242086,253.442776 C192.067269,253.442776 194.36597,249.851055 194.294136,243.583502 L194.222301,243.583502 C193.216619,246.115666 190.558746,247.821733 187.200487,247.821733 C182.27983,247.821733 178.598316,244.176136 178.598316,239.255479 C178.598316,234.011567 182.674919,230.222301 188.278003,230.222301 C192.085227,230.222301 195.174107,232.054079 196.898133,235.358462 C198.119318,237.477577 198.747869,240.189326 198.747869,243.421875 C198.747869,252.059963 194.814935,257.196124 188.170252,257.196124 Z M188.295962,244.194095 C191.259131,244.194095 193.503957,242.039062 193.503957,239.183644 C193.503957,236.292309 191.241173,234.029525 188.331879,234.029525 C185.440544,234.029525 183.159801,236.274351 183.159801,239.11181 C183.159801,242.039062 185.350751,244.194095 188.295962,244.194095 Z M206.781351,256.675325 L218.149148,234.640118 L218.149148,234.550325 L204.680195,234.550325 L204.680195,230.761059 L222.710633,230.761059 L222.710633,234.622159 L211.630175,256.675325 L206.781351,256.675325 Z M229.666599,238.447342 C229.666599,233.670353 233.491782,230.24026 238.861404,230.24026 C244.033482,230.24026 247.732955,233.400974 247.732955,237.603287 C247.732955,240.692167 245.901177,243.026786 242.507001,246.456879 L236.095779,252.796266 L236.095779,252.886059 L248.128044,252.886059 L248.128044,256.675325 L229.918019,256.675325 L229.918019,253.550528 L239.454038,244.068385 C242.399249,241.069298 243.207386,239.740361 243.207386,237.800832 C243.207386,235.663758 241.285816,233.957691 238.717735,233.957691 C236.023945,233.957691 234.012581,235.861303 234.012581,238.429383 L234.012581,238.501218 L229.666599,238.501218 L229.666599,238.447342 Z M265.140828,257.196124 C258.783482,257.196124 254.994217,252.006088 254.994217,243.691254 C254.994217,235.412338 258.819399,230.24026 265.140828,230.24026 C271.444298,230.24026 275.251522,235.37642 275.251522,243.673295 C275.251522,251.97017 271.480215,257.196124 265.140828,257.196124 Z M265.140828,253.406859 C268.570921,253.406859 270.564326,249.797179 270.564326,243.691254 C270.564326,237.639205 268.535004,234.029525 265.140828,234.029525 C261.728693,234.029525 259.663454,237.675122 259.663454,243.673295 C259.663454,249.779221 261.692776,253.406859 265.140828,253.406859 Z M333.862419,256.675325 L333.862419,235.178876 L333.754667,235.178876 L327.056108,239.88403 L327.056108,235.520089 L333.826502,230.761059 L338.405946,230.761059 L338.405946,256.675325 L333.862419,256.675325 Z M348.073661,238.447342 C348.073661,233.670353 351.898843,230.24026 357.268466,230.24026 C362.440544,230.24026 366.140016,233.400974 366.140016,237.603287 C366.140016,240.692167 364.308239,243.026786 360.914063,246.456879 L354.502841,252.796266 L354.502841,252.886059 L366.535106,252.886059 L366.535106,256.675325 L348.325081,256.675325 L348.325081,253.550528 L357.8611,244.068385 C360.806311,241.069298 361.614448,239.740361 361.614448,237.800832 C361.614448,235.663758 359.692877,233.957691 357.124797,233.957691 C354.431006,233.957691 352.419643,235.861303 352.419643,238.429383 L352.419643,238.501218 L348.073661,238.501218 L348.073661,238.447342 Z M379.776583,245.127942 L379.776583,241.643973 L382.90138,241.643973 C385.559253,241.643973 387.373072,240.00974 387.373072,237.69308 C387.373072,235.430296 385.792715,233.921774 382.883421,233.921774 C380.207589,233.921774 378.411729,235.484172 378.232143,237.908584 L373.922078,237.908584 C374.173498,233.257305 377.747261,230.24026 383.098925,230.24026 C388.199168,230.24026 391.826806,233.023843 391.826806,237.064529 C391.826806,240.279119 389.671774,242.595779 386.475142,243.152496 L386.475142,243.260248 C390.3542,243.547585 392.868405,245.918121 392.868405,249.5278 C392.868405,254.107244 388.702009,257.196124 383.045049,257.196124 C377.352171,257.196124 373.652699,254.071327 373.419237,249.455966 L377.837054,249.455966 C378.052557,251.826502 379.992086,253.406859 383.080966,253.406859 C386.062094,253.406859 388.163251,251.736709 388.163251,249.348214 C388.163251,246.726258 386.187804,245.127942 382.973214,245.127942 L379.776583,245.127942 Z M412.646814,256.675325 L412.646814,251.772626 L399.716619,251.772626 L399.716619,247.785816 C401.961445,243.547585 404.85278,238.932224 410.473823,230.761059 L417.064631,230.761059 L417.064631,247.98336 L420.5486,247.98336 L420.5486,251.772626 L417.064631,251.772626 L417.064631,256.675325 L412.646814,256.675325 Z M403.918933,247.965402 L403.918933,248.091112 L412.718649,248.091112 L412.718649,234.191153 L412.646814,234.191153 C408.462459,240.261161 405.984172,244.086343 403.918933,247.965402 Z M470.569298,257.196124 C465.217634,257.196124 461.338575,253.981534 461.141031,249.384131 L465.487013,249.384131 C465.774351,251.790584 467.875507,253.442776 470.605215,253.442776 C473.694095,253.442776 475.81321,251.287744 475.81321,248.234781 C475.81321,245.127942 473.676136,242.936993 470.641132,242.936993 C468.522017,242.936993 466.690239,243.906757 465.738433,245.523032 L461.53612,245.523032 L462.883015,230.761059 L478.758421,230.761059 L478.758421,234.550325 L466.546571,234.550325 L465.882102,242.128856 L465.989854,242.128856 C467.06737,240.458705 469.186485,239.417106 471.754566,239.417106 C476.71114,239.417106 480.284903,243.062703 480.284903,248.109071 C480.284903,253.496652 476.316051,257.196124 470.569298,257.196124 Z M497.315645,257.214083 C493.544338,257.214083 490.473417,255.382305 488.731433,252.059963 C487.510248,249.940848 486.881696,247.229099 486.881696,244.014509 C486.881696,235.37642 490.886465,230.222301 497.459314,230.222301 C502.200386,230.222301 505.881899,233.041802 506.654119,237.226157 L502.056717,237.226157 C501.464083,235.268669 499.650264,233.993608 497.423397,233.993608 C493.544338,233.993608 491.263596,237.585329 491.299513,243.834923 L491.389306,243.834923 C492.484781,241.30276 495.142654,239.614651 498.41112,239.614651 C503.331778,239.614651 506.995333,243.242289 506.995333,248.162946 C506.995333,253.424817 502.936688,257.214083 497.315645,257.214083 Z M497.279728,253.424817 C500.153105,253.424817 502.433847,251.162033 502.433847,248.306615 C502.433847,245.379363 500.278815,243.242289 497.315645,243.242289 C494.334517,243.242289 492.125609,245.379363 492.125609,248.252739 C492.125609,251.144075 494.388393,253.424817 497.279728,253.424817 Z M515.549614,256.675325 L526.917411,234.640118 L526.917411,234.550325 L513.448458,234.550325 L513.448458,230.761059 L531.478896,230.761059 L531.478896,234.622159 L520.398438,256.675325 L515.549614,256.675325 Z M548.401887,257.196124 C542.403713,257.196124 538.309152,254.089286 538.309152,249.671469 C538.309152,246.31321 540.679688,243.673295 544.199574,243.008827 L544.199574,242.919034 C541.254363,242.164773 539.332792,239.88403 539.332792,237.064529 C539.332792,233.131595 543.122058,230.24026 548.401887,230.24026 C553.699675,230.24026 557.453024,233.113636 557.453024,237.082488 C557.453024,239.866071 555.549412,242.128856 552.6042,242.919034 L552.6042,243.008827 C556.124087,243.691254 558.512581,246.331169 558.512581,249.671469 C558.512581,254.107244 554.364144,257.196124 548.401887,257.196124 Z M548.401887,253.658279 C551.508726,253.658279 553.699675,251.826502 553.699675,249.330256 C553.699675,246.798093 551.508726,244.984274 548.401887,244.984274 C545.295049,244.984274 543.104099,246.816051 543.104099,249.330256 C543.104099,251.826502 545.295049,253.658279 548.401887,253.658279 Z M548.401887,241.446429 C551.005885,241.446429 552.87358,239.830154 552.87358,237.603287 C552.87358,235.358462 551.023843,233.742187 548.401887,233.742187 C545.761972,233.742187 543.912236,235.358462 543.912236,237.603287 C543.912236,239.830154 545.761972,241.446429 548.401887,241.446429 Z" id="4111-9720-1234-5678" fill="#FFFFFF"></path>
                <g id="Group-3" transform="translate(498.051948, 39.311688)" fill="#FFFFFF">
                    <path d="M1.96807426,42.7623853 C1.22188682,42.4578482 0.369006514,41.4588098 0.115859444,40.589542 C-0.167108614,39.6185445 0.0641697288,38.8470938 1.18543895,37.0342173 C2.62678679,34.7016061 2.96210725,33.4501997 2.96210725,30.4015674 C2.96210725,27.3535873 2.62678679,26.1015288 1.18543895,23.7689175 C0.697037402,22.9785556 0.205985103,22.030382 0.0946534073,21.6632419 C-0.369228657,20.1262096 0.932291877,18.2422527 2.68046457,17.9194564 C4.16289911,17.6455685 5.18078889,18.2963782 6.54327678,20.3896636 C10.4889251,26.4504097 10.4889251,34.546403 6.54128872,40.5562842 C5.14964253,42.6763063 3.59696299,43.4262372 1.96807426,42.7623853 M13.3782477,48.5290281 C12.4352417,48.110371 11.6241108,47.1302439 11.4040981,46.1416393 C11.2695723,45.5397382 11.5008507,44.8732779 12.6188064,42.6450049 C16.7261508,34.4609761 16.7698882,26.5769197 12.7539949,18.582004 C10.9912431,15.0710231 10.9521445,14.3719571 12.4438566,12.9875194 C13.1794411,12.3041041 13.4922301,12.183463 14.5260244,12.183463 C16.2602806,12.183463 17.1595492,13.0409927 18.7089153,16.1730955 C21.0919437,20.9902604 22.0680841,25.1696581 22.0594691,30.5241648 C22.0515169,36.0280057 21.1396573,39.8063533 18.5929447,44.8863201 C17.1350297,47.7947479 16.4140244,48.562938 14.954784,48.7598764 C14.5094572,48.8198708 13.7997176,48.7155326 13.3782477,48.5290281 M25.6055162,54.7188927 C24.0806696,54.2826285 22.9806064,52.441059 23.4212943,51.0618382 C23.5279872,50.7273038 24.2463417,49.1883152 25.0163859,47.6421532 C28.2794649,41.0942781 29.637314,34.0749247 28.9719746,27.1833856 C28.4252564,21.520429 27.3941129,17.9494536 24.7963733,12.7240654 C23.0528394,9.21830135 22.9719914,8.67509051 23.9859051,7.26326404 C24.9494544,5.92121375 27.3543515,5.70340773 28.6180988,6.84395484 C29.4935106,7.63431682 32.217161,13.2314099 33.2681852,16.4013353 C36.7473007,26.8912386 36.2171497,38.1519405 31.7579177,48.4566434 C29.4736299,53.735505 27.870586,55.3677459 25.6055162,54.7188927 M37.4630044,60.8233304 C36.4689714,60.540313 35.4603593,59.3762897 35.2489616,58.2637835 C35.1104597,57.5399372 35.2794453,57.0384616 36.3331202,55.0306031 C40.592883,46.9222196 42.4444351,39.4600808 42.4444351,30.4015674 C42.4444351,21.6482433 40.8049433,14.8369142 36.7333842,6.67375313 C35.8592978,4.92152323 35.1442568,3.29449919 35.1442568,3.05908609 C35.1442568,2.19047045 35.8824919,0.931238621 36.6823572,0.436936327 C37.7791069,-0.239957843 39.6174053,-0.113447757 40.4974558,0.699086092 C40.8347643,1.01210074 41.7141522,2.43110046 42.4490739,3.85270864 C45.3622533,9.48240745 47.3589342,15.6585777 48.3443522,22.087768 C48.9546885,26.0663146 49.0759605,33.6073591 48.5888844,37.2494149 C47.6896159,43.968796 45.8871027,49.9636785 43.0017563,55.8372679 C41.2575597,59.3873757 40.1634607,60.8481107 39.2462996,60.8481107 C39.0633975,60.8481107 38.7638623,60.8931065 38.5822856,60.9485362 C38.3993835,61.0026617 37.8957401,60.947232 37.4630044,60.8233304" id="Fill-1"></path>
                </g>
                <path d="M54.0815874,318.286754 L57.2744775,318.286754 C57.3126395,319.800515 58.3557351,320.818169 59.8822164,320.818169 C61.6376699,320.818169 62.5917208,319.749632 62.5917208,317.765206 L62.5917208,304.942763 L65.860935,304.942763 L65.860935,317.790648 C65.860935,321.530527 63.647537,323.693042 59.9203784,323.693042 C56.4221921,323.693042 54.0815874,321.543248 54.0815874,318.286754 Z M75.5406225,304.942763 L75.5406225,316.531301 C75.5406225,319.037274 77.0798245,320.741845 79.8020495,320.741845 C82.5242746,320.741845 84.0761972,319.037274 84.0761972,316.531301 L84.0761972,304.942763 L87.3454114,304.942763 L87.3454114,316.823876 C87.3454114,320.83089 84.4578176,323.603998 79.8020495,323.603998 C75.1590021,323.603998 72.2586876,320.83089 72.2586876,316.823876 L72.2586876,304.942763 L75.5406225,304.942763 Z M105.408026,323.298701 L103.843382,318.553888 L97.0887023,318.553888 L95.5240589,323.298701 L92.1403587,323.298701 L98.6533457,304.942763 L102.355063,304.942763 L108.86805,323.298701 L105.408026,323.298701 Z M100.42152,308.186536 L97.851943,316.022474 L103.067421,316.022474 L100.510565,308.186536 L100.42152,308.186536 Z M117.059418,323.298701 L113.891969,323.298701 L113.891969,304.942763 L116.741401,304.942763 L125.849406,317.803369 L125.963893,317.803369 L125.963893,304.942763 L129.118621,304.942763 L129.118621,323.298701 L126.29463,323.298701 L117.173904,310.425375 L117.059418,310.425375 L117.059418,323.298701 Z M142.957221,318.134106 L146.137391,318.134106 C146.340922,319.825956 148.032772,320.932655 150.271611,320.932655 C152.485009,320.932655 154.024211,319.838677 154.024211,318.312196 C154.024211,316.989245 153.082881,316.226004 150.767718,315.679015 L148.388951,315.119305 C145.005251,314.343344 143.402445,312.715097 143.402445,310.094638 C143.402445,306.838144 146.239156,304.637467 150.233449,304.637467 C154.278625,304.637467 156.949967,306.825424 157.026291,310.056476 L153.897004,310.056476 C153.744356,308.339184 152.30692,307.308809 150.208008,307.308809 C148.134537,307.308809 146.735263,308.326464 146.735263,309.852945 C146.735263,311.07413 147.663872,311.786488 149.915432,312.320756 L152.027065,312.804142 C155.754223,313.656428 157.331587,315.19563 157.331587,317.930575 C157.331587,321.416041 154.533038,323.603998 150.093522,323.603998 C145.870257,323.603998 143.097149,321.517806 142.957221,318.134106 Z M174.745447,320.525594 L174.745447,323.298701 L162.864334,323.298701 L162.864334,304.942763 L174.745447,304.942763 L174.745447,307.715871 L166.146269,307.715871 L166.146269,312.676935 L174.274782,312.676935 L174.274782,315.284674 L166.146269,315.284674 L166.146269,320.525594 L174.745447,320.525594 Z M183.941749,307.601385 L183.941749,313.872679 L187.643466,313.872679 C189.729657,313.872679 190.938121,312.715097 190.938121,310.730672 C190.938121,308.797129 189.653333,307.601385 187.579863,307.601385 L183.941749,307.601385 Z M183.941749,316.391373 L183.941749,323.298701 L180.659814,323.298701 L180.659814,304.942763 L187.948762,304.942763 C191.917614,304.942763 194.29638,307.143441 194.29638,310.654348 C194.29638,313.083997 193.024313,315.106585 190.836356,315.895267 L194.84337,323.298701 L191.10349,323.298701 L187.490818,316.391373 L183.941749,316.391373 Z M208.759043,323.298701 L204.993722,323.298701 L198.607942,304.942763 L202.220614,304.942763 L206.876382,319.775074 L206.952706,319.775074 L211.608475,304.942763 L215.144823,304.942763 L208.759043,323.298701 Z M232.049855,320.525594 L232.049855,323.298701 L220.168742,323.298701 L220.168742,304.942763 L232.049855,304.942763 L232.049855,307.715871 L223.450677,307.715871 L223.450677,312.676935 L231.57919,312.676935 L231.57919,315.284674 L223.450677,315.284674 L223.450677,320.525594 L232.049855,320.525594 Z M241.131671,323.298701 L237.964222,323.298701 L237.964222,304.942763 L240.813654,304.942763 L249.921659,317.803369 L250.036145,317.803369 L250.036145,304.942763 L253.190874,304.942763 L253.190874,323.298701 L250.366883,323.298701 L241.246157,310.425375 L241.131671,310.425375 L241.131671,323.298701 Z M267.259195,323.298701 L263.989981,323.298701 L263.989981,307.715871 L258.494648,307.715871 L258.494648,304.942763 L272.741807,304.942763 L272.741807,307.715871 L267.259195,307.715871 L267.259195,323.298701 Z M289.926694,320.525594 L289.926694,323.298701 L278.045581,323.298701 L278.045581,304.942763 L289.926694,304.942763 L289.926694,307.715871 L281.327516,307.715871 L281.327516,312.676935 L289.456029,312.676935 L289.456029,315.284674 L281.327516,315.284674 L281.327516,320.525594 L289.926694,320.525594 Z" id="JUAN-SERVENTE" fill="#FFFFFF"></path>
                <g id="logo-tarjta-copy" transform="translate(39.844156, 39.311688)">
                    <g id="Group-3" transform="translate(0.000000, 0.003709)">
                        <mask id="mask-5" fill="white">
                            <use xlink:href="#path-4"></use>
                        </mask>
                        <g id="Clip-2"></g>
                        <path d="M15.6317898,36.1141453 C11.7155741,36.1141453 8.53063837,32.8317728 8.53063837,28.796979 C8.53063837,24.7621851 11.7155741,21.4798715 15.6317898,21.4798715 C19.5480054,21.4798715 22.7329411,24.7621851 22.7329411,28.796979 C22.7329411,32.8317728 19.5480054,36.1141453 15.6317898,36.1141453 M15.6464748,12.6777017 C13.3002424,12.6777017 11.0440058,13.2001757 8.94033337,14.229935 L8.54349491,14.4239715 L8.54349491,4.45628754 C8.54349491,2.02947711 6.62718513,0.0551438113 4.27266741,0.0551438113 C1.91632121,0.0551438113 1.14280334e-05,2.02947711 1.14280334e-05,4.45628754 L1.14280334e-05,28.8121086 C0.0073253694,37.6919283 7.02676632,44.916315 15.6464748,44.916315 C24.2726401,44.916315 31.2911096,37.6852171 31.2911096,28.796979 C31.2911096,19.9087409 24.2726401,12.6777017 15.6464748,12.6777017" id="Fill-1" fill="#FFFFFF" mask="url(#mask-5)"></path>
                    </g>
                    <g id="Group-6" transform="translate(90.738585, 0.003709)">
                        <mask id="mask-7" fill="white">
                            <use xlink:href="#path-6"></use>
                        </mask>
                        <g id="Clip-5"></g>
                        <path d="M15.6338525,36.1141453 C11.717694,36.1141453 8.53270113,32.8317728 8.53270113,28.796979 C8.53270113,24.7621851 11.717694,21.4798715 15.6338525,21.4798715 C19.5500681,21.4798715 22.7350039,24.7621851 22.7350039,28.796979 C22.7350039,32.8317728 19.5500681,36.1141453 15.6338525,36.1141453 M15.6485947,12.6777017 C13.3023051,12.6777017 11.0460685,13.2001757 8.94239613,14.229935 L8.54555767,14.4239715 L8.54555767,4.45628754 C8.54555767,2.02947711 6.62924789,0.0551438113 4.27473017,0.0551438113 C1.91838397,0.0551438113 0.00207418806,2.02947711 0.00207418806,4.45628754 L0.00207418806,28.8121086 C0.00944526959,37.6919283 7.02882908,44.916315 15.6485947,44.916315 C24.2747028,44.916315 31.2931724,37.6852171 31.2931724,28.796979 C31.2931724,19.9087409 24.2747028,12.6777017 15.6485947,12.6777017" id="Fill-4" fill="#FFFFFF" mask="url(#mask-7)"></path>
                    </g>
                    <path d="M82.2664582,12.6820993 C79.9119405,12.6820993 77.9956307,14.6564326 77.9956307,17.0831842 L77.9956307,29.5123532 L78.0071731,29.5123532 C78.0071731,33.3645902 75.1413651,36.4983741 71.6175882,36.4983741 C68.0938112,36.4983741 65.2280033,33.3645902 65.2280033,29.5123532 L65.2396027,29.5123532 L65.2396027,17.0831842 C65.2396027,14.6564326 63.323293,12.6820993 60.9687752,12.6820993 C58.612429,12.6820993 56.6961193,14.6564326 56.6961193,17.0831842 L56.6961193,29.5274829 C56.7031475,37.9989192 63.3959753,44.8918073 71.6175882,44.899696 C79.8392011,44.8918073 86.5320288,37.9989192 86.5390571,29.5274829 L86.5391142,29.5274829 L86.5391142,17.0831842 C86.5391142,14.6564326 84.6228044,12.6820993 82.2664582,12.6820993" id="Fill-7" fill="#FFFFFF"></path>
                    <path d="M72.017798,44.9002241 C72.0027185,44.9002241 71.987639,44.8996724 71.9725596,44.8996724 C71.9574801,44.8996724 71.9425845,44.9002241 71.927505,44.9002241 L72.017798,44.9002241 Z" id="Fill-9" fill="#FFFFFF"></path>
                    <path d="M174.088735,12.6820993 C174.103815,12.6820993 174.11871,12.682651 174.13379,12.682651 C174.148869,12.682651 174.163765,12.6820993 174.178844,12.6820993 L174.088735,12.6820993 Z" id="Fill-11" fill="#FFFFFF"></path>
                    <path d="M174.10274,12.6822701 C165.881127,12.6901587 159.188242,19.5830468 159.181271,28.0544832 L159.181214,28.0544832 L159.181214,40.498723 C159.181214,42.9255334 161.097524,44.8998667 163.45387,44.8998667 C165.808388,44.8998667 167.724698,42.9255334 167.724698,40.498723 L167.724698,28.069554 L167.713212,28.069554 C167.713212,24.2173758 170.578963,21.083533 174.10274,21.083533 C177.626517,21.083533 180.492268,24.2173758 180.492268,28.069554 L180.480726,28.069554 L180.480726,40.498723 C180.480726,42.9255334 182.397035,44.8998667 184.751553,44.8998667 C187.107899,44.8998667 189.024209,42.9255334 189.024209,40.498723 L189.024209,28.0544832 C189.017238,19.5830468 182.324353,12.6901587 174.10274,12.6822701" id="Fill-13" fill="#FFFFFF"></path>
                    <g id="Group-17" transform="translate(124.279863, 12.660824)">
                        <mask id="mask-9" fill="white">
                            <use xlink:href="#path-8"></use>
                        </mask>
                        <g id="Clip-16"></g>
                        <path d="M15.5552962,23.4577193 C11.6391377,23.4577193 8.45414483,20.1753468 8.45414483,16.1405529 C8.45414483,12.1057591 11.6391377,8.82344545 15.5552962,8.82344545 C19.4715118,8.82344545 22.6564476,12.1057591 22.6564476,16.1405529 C22.6564476,20.1753468 19.4715118,23.4577193 15.5552962,23.4577193 M15.6573486,0.0212757269 C7.03124039,0.0212757269 0.0127136871,7.25231484 0.0127136871,16.1405529 C0.0127136871,24.6550235 6.45332474,31.6486976 14.5779708,32.2219177 C18.0310654,32.4780624 21.5105587,30.7976096 23.4558957,27.5599785 L23.461324,28.3219368 C23.4705236,29.4642562 23.834335,30.4240187 24.5444159,31.1736142 C25.2628392,31.9345717 26.2173085,32.319819 27.3830251,32.319819 C28.5084007,32.319819 29.4546418,31.9345717 30.1922642,31.1745562 C30.9300009,30.4145406 31.303869,29.4405903 31.303869,28.2802567 L31.303869,16.1254233 C31.296498,7.2456625 24.2771142,0.0212757269 15.6573486,0.0212757269" id="Fill-15" fill="#FFFFFF" mask="url(#mask-9)"></path>
                    </g>
                    <g id="Group-20" transform="translate(192.905204, 0.062579)">
                        <mask id="mask-11" fill="white">
                            <use xlink:href="#path-10"></use>
                        </mask>
                        <g id="Clip-19"></g>
                        <path d="M26.6577278,38.0803192 L17.2611416,27.9869472 L25.9917591,19.3556779 C27.5213443,17.8434765 27.5716848,15.3311275 26.103411,13.7546397 C24.636223,12.1793293 22.1976521,12.1274646 20.6680669,13.6396071 L8.55606574,25.6137087 L8.55612288,4.40945033 C8.55612288,1.9826399 6.63981311,0.00836546982 4.28352404,0.00836546982 C1.92900632,0.00836546982 0.0126394049,1.9826399 0.0126394049,4.40945033 L0.0125822648,40.4482593 C0.0125822648,42.8750109 1.92894918,44.8492853 4.28523825,44.8492853 C6.63975597,44.8492853 8.55606574,42.8750109 8.55606574,40.4482593 L8.55606574,30.0806694 L21.1085605,43.56397 C22.57592,45.1402223 25.0144337,45.1926169 26.5437903,43.6813574 C28.0742897,42.1689205 28.1251444,39.6565715 26.6577278,38.0803192" id="Fill-18" fill="#FFFFFF" mask="url(#mask-11)"></path>
                    </g>
                    <path d="M52.1499104,12.8331841 C48.2784356,12.2743872 44.5772384,14.1828446 42.6059598,17.4268926 L42.6059598,17.0832078 C42.6059598,14.6563973 40.68965,12.6821229 38.3350751,12.6821229 C35.9787861,12.6821229 34.0624763,14.6563973 34.0624763,17.0832078 L34.0624763,27.8309821 L34.0624763,29.5275064 L34.0624763,40.2752807 C34.0624763,42.7020323 35.9787861,44.6763656 38.3350751,44.6763656 C40.68965,44.6763656 42.6059598,42.7020323 42.6059598,40.2752807 L42.6059598,29.5123767 L42.6059598,27.8461117 L42.6059598,27.4322535 C42.8024648,23.7719925 45.5873051,20.8600908 48.9840024,20.8600908 C49.4668939,20.8600908 49.937386,20.9189022 50.3899362,21.0304026 C52.5712049,21.6183992 54.8021856,20.2732128 55.3729016,18.0258979 C55.4715255,17.6374716 55.5142092,17.2472793 55.5060953,16.8645046 C55.5060953,14.8234124 54.049821,13.1323041 52.1499104,12.8331841" id="Fill-21" fill="#FFFFFF"></path>
                </g>
            </g>
        </g>
    </g>
</svg>