<svg width="140" height="40" viewBox="0 0 140 40" xmlns="http://www.w3.org/2000/svg">
  <title>
    google-play-badge.8e87010e copy 2
  </title>
  <defs>
    <linearGradient x1="55.109%" y1="50%" x2="27.681%" y2="13.608%" id="a">
      <stop stop-color="#00F076" offset="0%"/>
      <stop stop-color="#0BE070" offset="100%"/>
    </linearGradient>
    <linearGradient x1="25.147%" y1="47.432%" x2="50%" y2="43.624%" id="b">
      <stop stop-color="#00E2FF" offset="0%"/>
      <stop stop-color="#01C4F7" offset="100%"/>
    </linearGradient>
    <linearGradient x1="29.418%" y1="79.816%" x2="50%" y2="59.404%" id="c">
      <stop stop-color="#EB214E" offset="0%"/>
      <stop stop-color="#FF3A44" offset="100%"/>
    </linearGradient>
    <linearGradient x1="50%" y1="50%" x2="0%" y2="50%" id="d">
      <stop stop-color="#FFD902" offset="0%"/>
      <stop stop-color="#FFBD00" offset="100%"/>
    </linearGradient>
  </defs>
  <g fill="none" fill-rule="evenodd">
    <g transform="translate(0 .733)">
      <rect fill="#343348" fill-rule="nonzero" width="140" height="38.673" rx="5.283"/>
      <path d="M53.251 11.4c0 .668-.198 1.198-.596 1.595-.453.47-1.041.706-1.765.706a2.424 2.424 0 0 1-1.768-.717c-.487-.477-.728-1.07-.728-1.777 0-.707.241-1.3.728-1.778a2.426 2.426 0 0 1 1.768-.716c.343 0 .673.067.986.2.313.134.563.311.751.533l-.422.42c-.318-.377-.756-.566-1.315-.566-.506 0-.944.176-1.313.53-.369.354-.553.812-.553 1.377s.184 1.024.553 1.377c.37.354.807.53 1.313.53.536 0 .983-.177 1.342-.533.232-.232.367-.553.402-.967H50.89v-.574h2.328c.022.125.033.245.033.36" fill="#FFF" fill-rule="nonzero"/>
      <path d="M53.251 11.4c0 .668-.198 1.198-.596 1.595-.453.47-1.041.706-1.765.706a2.424 2.424 0 0 1-1.768-.717c-.487-.477-.728-1.07-.728-1.777 0-.707.241-1.3.728-1.778a2.426 2.426 0 0 1 1.768-.716c.343 0 .673.067.986.2.313.134.563.311.751.533l-.422.42c-.318-.377-.756-.566-1.315-.566-.506 0-.944.176-1.313.53-.369.354-.553.812-.553 1.377s.184 1.024.553 1.377c.37.354.807.53 1.313.53.536 0 .983-.177 1.342-.533.232-.232.367-.553.402-.967H50.89v-.574h2.328c.022.125.033.245.033.36z" stroke="#FFF" stroke-width=".636"/>
      <path fill="#FFF" fill-rule="nonzero" d="M56.942 9.406h-2.187v1.514h1.972v.574h-1.972v1.514h2.187v.587h-2.805V8.82h2.805z"/>
      <path stroke="#FFF" stroke-width=".636" d="M56.942 9.406h-2.187v1.514h1.972v.574h-1.972v1.514h2.187v.587h-2.805V8.82h2.805z"/>
      <path fill="#FFF" fill-rule="nonzero" d="M59.546 13.595h-.618V9.406h-1.342V8.82h3.302v.586h-1.342z"/>
      <path stroke="#FFF" stroke-width=".636" d="M59.546 13.595h-.618V9.406h-1.342V8.82h3.302v.586h-1.342z"/>
      <path fill="#FFF" fill-rule="nonzero" d="M63.277 13.595h.617V8.82h-.617z"/>
      <path stroke="#FFF" stroke-width=".636" d="M63.277 13.595h.617V8.82h-.617z"/>
      <path fill="#FFF" fill-rule="nonzero" d="M66.633 13.595h-.618V9.406h-1.342V8.82h3.302v.586h-1.342z"/>
      <path stroke="#FFF" stroke-width=".636" d="M66.633 13.595h-.618V9.406h-1.342V8.82h3.302v.586h-1.342z"/>
      <path d="M71.158 12.578c.355.358.79.536 1.305.536.514 0 .95-.178 1.305-.536.356-.358.535-.815.535-1.37 0-.556-.179-1.014-.535-1.371a1.77 1.77 0 0 0-1.305-.537c-.515 0-.95.179-1.305.537-.355.357-.533.815-.533 1.37 0 .556.178 1.013.533 1.37m3.067.4c-.473.483-1.06.724-1.762.724s-1.29-.24-1.76-.724c-.473-.482-.709-1.072-.709-1.77s.236-1.288.708-1.77c.472-.483 1.059-.724 1.761-.724.698 0 1.284.242 1.759.727.474.484.71 1.073.71 1.767 0 .698-.235 1.288-.707 1.77" fill="#FFF" fill-rule="nonzero"/>
      <path d="M71.158 12.578c.355.358.79.536 1.305.536.514 0 .95-.178 1.305-.536.356-.358.535-.815.535-1.37 0-.556-.179-1.014-.535-1.371a1.77 1.77 0 0 0-1.305-.537c-.515 0-.95.179-1.305.537-.355.357-.533.815-.533 1.37 0 .556.178 1.013.533 1.37zm3.067.4c-.473.482-1.06.723-1.762.723s-1.29-.24-1.76-.724c-.473-.482-.709-1.072-.709-1.77s.236-1.288.708-1.77c.472-.483 1.059-.724 1.761-.724.698 0 1.284.242 1.759.727.474.484.71 1.073.71 1.767 0 .698-.235 1.288-.707 1.77z" stroke="#FFF" stroke-width=".636"/>
      <path fill="#FFF" fill-rule="nonzero" d="M75.8 13.595V8.82h.75l2.335 3.714h.028l-.028-.92V8.82h.619v4.775h-.645L76.417 9.7h-.028l.028.92v2.975z"/>
      <path stroke="#FFF" stroke-width=".636" d="M75.8 13.595V8.82h.75l2.335 3.714h.028l-.028-.92V8.82h.619v4.775h-.645L76.417 9.7h-.028l.028.92v2.975z"/>
      <path d="M100.913 27.124h1.494v-9.949h-1.494v9.949zm13.46-6.365l-1.714 4.313h-.051l-1.778-4.313h-1.61l2.667 6.028-1.52 3.354h1.558l4.109-9.382h-1.662zm-8.476 5.235c-.488 0-1.171-.244-1.171-.845 0-.768.85-1.063 1.584-1.063.656 0 .966.142 1.365.333a1.808 1.808 0 0 1-1.778 1.575zm.181-5.453c-1.082 0-2.202.474-2.666 1.523l1.326.55c.284-.55.812-.73 1.366-.73.773 0 1.558.462 1.571 1.28v.103a3.324 3.324 0 0 0-1.558-.383c-1.43 0-2.886.78-2.886 2.24 0 1.33 1.173 2.188 2.486 2.188 1.004 0 1.56-.448 1.906-.973h.052v.768h1.443v-3.814c0-1.766-1.328-2.752-3.04-2.752zm-9.235 1.429h-2.125v-3.41h2.125c1.117 0 1.752.918 1.752 1.705 0 .77-.635 1.705-1.752 1.705zm-.038-4.796h-3.58v9.95h1.493v-3.77h2.087c1.656 0 3.284-1.191 3.284-3.09 0-1.898-1.628-3.09-3.284-3.09zM77.28 25.995c-1.033 0-1.897-.858-1.897-2.038 0-1.193.864-2.064 1.897-2.064 1.018 0 1.818.871 1.818 2.064 0 1.18-.8 2.038-1.818 2.038zm1.715-4.68h-.051c-.336-.396-.981-.756-1.793-.756-1.704 0-3.265 1.487-3.265 3.398 0 1.897 1.561 3.372 3.265 3.372.812 0 1.457-.359 1.793-.77h.05v.488c0 1.295-.696 1.987-1.818 1.987-.916 0-1.484-.654-1.716-1.205l-1.303.539c.374.897 1.367 2 3.02 2 1.754 0 3.238-1.026 3.238-3.527v-6.077h-1.42v.552zm2.452 5.809h1.496v-9.949h-1.496v9.949zm3.702-3.282c-.038-1.309 1.02-1.975 1.78-1.975.594 0 1.097.296 1.266.718l-3.046 1.257zm4.645-1.129c-.285-.756-1.149-2.154-2.916-2.154-1.755 0-3.213 1.372-3.213 3.385 0 1.898 1.446 3.385 3.38 3.385 1.561 0 2.464-.949 2.84-1.5l-1.162-.77c-.388.565-.916.936-1.678.936-.76 0-1.303-.346-1.65-1.026l4.553-1.871-.154-.385zm-36.283-1.115v1.436h3.457c-.102.808-.374 1.397-.786 1.807-.504.5-1.291 1.052-2.671 1.052-2.13 0-3.793-1.705-3.793-3.82 0-2.116 1.664-3.822 3.793-3.822 1.148 0 1.987.449 2.606 1.027l1.02-1.013c-.866-.82-2.013-1.45-3.626-1.45-2.916 0-5.368 2.36-5.368 5.258 0 2.896 2.452 5.256 5.368 5.256 1.574 0 2.76-.513 3.69-1.475.954-.948 1.251-2.282 1.251-3.359 0-.332-.026-.64-.078-.897h-4.863zm8.871 4.397c-1.031 0-1.922-.846-1.922-2.05 0-1.219.89-2.052 1.922-2.052 1.033 0 1.923.833 1.923 2.051 0 1.205-.89 2.051-1.923 2.051zm0-5.436c-1.883 0-3.418 1.424-3.418 3.385 0 1.95 1.535 3.385 3.418 3.385 1.885 0 3.42-1.436 3.42-3.385 0-1.961-1.535-3.385-3.42-3.385zm7.459 5.436c-1.032 0-1.923-.846-1.923-2.05 0-1.219.89-2.052 1.923-2.052 1.032 0 1.922.833 1.922 2.051 0 1.205-.89 2.051-1.922 2.051zm0-5.436c-1.884 0-3.419 1.424-3.419 3.385 0 1.95 1.535 3.385 3.419 3.385 1.883 0 3.419-1.436 3.419-3.385 0-1.961-1.536-3.385-3.419-3.385z" fill="#FFF" fill-rule="nonzero"/>
    </g>
    <g fill-rule="nonzero">
      <path d="M13.717 7.028L1.864.298A1.242 1.242 0 0 0 .408.464l9.936 9.91 3.373-3.346z" fill="url(#a)" transform="translate(23.774 9.988)"/>
      <path d="M.408.465A1.217 1.217 0 0 0 0 1.378V19.44c0 .342.136.634.344.852l10-9.918L.408.465z" fill="url(#b)" transform="translate(23.774 9.988)"/>
      <path d="M.344 20.291c.374.39.988.532 1.522.228l11.87-6.764-3.392-3.382-10 9.918z" fill="url(#c)" transform="translate(23.774 9.988)"/>
      <path d="M17.739 9.312l-4.023-2.284-3.372 3.345 3.39 3.382 4.007-2.283a1.241 1.241 0 0 0-.002-2.16" fill="url(#d)" transform="translate(23.774 9.988)"/>
    </g>
  </g>
</svg>
