<svg width="183" height="68" viewBox="0 0 183 68" xmlns="http://www.w3.org/2000/svg">
  <title>
    google-play-badge.8e87010e
  </title>
  <defs>
    <linearGradient x1="55.109%" y1="50%" x2="27.681%" y2="13.608%" id="a">
      <stop stop-color="#00F076" offset="0%"/>
      <stop stop-color="#0BE070" offset="100%"/>
    </linearGradient>
    <linearGradient x1="25.147%" y1="47.432%" x2="50%" y2="43.624%" id="b">
      <stop stop-color="#00E2FF" offset="0%"/>
      <stop stop-color="#01C4F7" offset="100%"/>
    </linearGradient>
    <linearGradient x1="29.418%" y1="79.816%" x2="50%" y2="59.404%" id="c">
      <stop stop-color="#EB214E" offset="0%"/>
      <stop stop-color="#FF3A44" offset="100%"/>
    </linearGradient>
    <linearGradient x1="50%" y1="50%" x2="0%" y2="50%" id="d">
      <stop stop-color="#FFD902" offset="0%"/>
      <stop stop-color="#FFBD00" offset="100%"/>
    </linearGradient>
  </defs>
  <g fill="none" fill-rule="evenodd">
    <g transform="translate(.25 .75)">
      <rect fill="#000" fill-rule="nonzero" width="182.25" height="66.75" rx="3.375"/>
      <path d="M62.592 19.678c0 1.15-.338 2.067-1.016 2.75-.77.814-1.773 1.22-3.007 1.22-1.181 0-2.187-.411-3.012-1.237-.828-.824-1.24-1.847-1.24-3.067 0-1.221.412-2.243 1.24-3.069.825-.824 1.83-1.236 3.012-1.236.586 0 1.148.115 1.68.345.533.23.96.537 1.28.92l-.72.725c-.541-.65-1.287-.978-2.24-.978-.862 0-1.607.305-2.236.915-.629.611-.942 1.403-.942 2.378 0 .974.313 1.766.942 2.376.63.611 1.374.915 2.236.915.914 0 1.676-.306 2.287-.92.395-.4.625-.955.685-1.67h-2.972v-.99h3.966c.038.216.057.422.057.623" fill="#FFF" fill-rule="nonzero"/>
      <path d="M62.592 19.678c0 1.15-.338 2.067-1.016 2.75-.77.814-1.773 1.22-3.007 1.22-1.181 0-2.187-.411-3.012-1.237-.828-.824-1.24-1.847-1.24-3.067 0-1.221.412-2.243 1.24-3.069.825-.824 1.83-1.236 3.012-1.236.586 0 1.148.115 1.68.345.533.23.96.537 1.28.92l-.72.725c-.541-.65-1.287-.978-2.24-.978-.862 0-1.607.305-2.236.915-.629.611-.942 1.403-.942 2.378 0 .974.313 1.766.942 2.376.63.611 1.374.915 2.236.915.914 0 1.676-.306 2.287-.92.395-.4.625-.955.685-1.67h-2.972v-.99h3.966c.038.216.057.422.057.623z" stroke="#FFF" stroke-width=".563"/>
      <path fill="#FFF" fill-rule="nonzero" d="M68.88 16.236h-3.727v2.612h3.36v.99h-3.36v2.613h3.728v1.014H64.1v-8.242h4.78z"/>
      <path stroke="#FFF" stroke-width=".563" d="M68.88 16.236h-3.727v2.612h3.36v.99h-3.36v2.613h3.728v1.014H64.1v-8.242h4.78z"/>
      <path fill="#FFF" fill-rule="nonzero" d="M73.316 23.464h-1.052v-7.229h-2.287v-1.012h5.625v1.012h-2.286z"/>
      <path stroke="#FFF" stroke-width=".563" d="M73.316 23.464h-1.052v-7.229h-2.287v-1.012h5.625v1.012h-2.286z"/>
      <path fill="#FFF" fill-rule="nonzero" d="M79.672 23.464h1.052v-8.241h-1.052z"/>
      <path stroke="#FFF" stroke-width=".563" d="M79.672 23.464h1.052v-8.241h-1.052z"/>
      <path fill="#FFF" fill-rule="nonzero" d="M85.388 23.464h-1.051v-7.229H82.05v-1.012h5.625v1.012h-2.287z"/>
      <path stroke="#FFF" stroke-width=".563" d="M85.388 23.464h-1.051v-7.229H82.05v-1.012h5.625v1.012h-2.287z"/>
      <path d="M93.097 21.71c.606.617 1.347.925 2.224.925.876 0 1.618-.308 2.224-.926.606-.618.91-1.406.91-2.365 0-.959-.304-1.749-.91-2.366-.606-.618-1.348-.927-2.224-.927-.877 0-1.618.31-2.224.927-.604.617-.908 1.407-.908 2.366 0 .959.304 1.747.908 2.365m5.225.69c-.804.833-1.804 1.25-3 1.25-1.197 0-2.197-.417-3-1.25-.806-.833-1.207-1.85-1.207-3.055s.401-2.224 1.206-3.056c.804-.833 1.804-1.249 3-1.249 1.19 0 2.187.418 2.996 1.254.808.837 1.211 1.853 1.211 3.05 0 1.205-.402 2.223-1.206 3.056" fill="#FFF" fill-rule="nonzero"/>
      <path d="M93.097 21.71c.606.617 1.347.925 2.224.925.876 0 1.618-.308 2.224-.926.606-.618.91-1.406.91-2.365 0-.959-.304-1.749-.91-2.366-.606-.618-1.348-.927-2.224-.927-.877 0-1.618.31-2.224.927-.604.617-.908 1.407-.908 2.366 0 .959.304 1.747.908 2.365zm5.225.689c-.804.833-1.804 1.25-3 1.25-1.197 0-2.197-.417-3-1.25-.806-.833-1.207-1.85-1.207-3.055s.401-2.224 1.206-3.056c.804-.833 1.804-1.249 3-1.249 1.19 0 2.187.418 2.996 1.254.808.837 1.211 1.853 1.211 3.05 0 1.205-.402 2.223-1.206 3.056z" stroke="#FFF" stroke-width=".563"/>
      <path fill="#FFF" fill-rule="nonzero" d="M101.004 23.464v-8.241h1.28l3.978 6.41h.046l-.046-1.588v-4.822h1.053v8.241h-1.098l-4.16-6.722h-.047l.046 1.59v5.132z"/>
      <path stroke="#FFF" stroke-width=".563" d="M101.004 23.464v-8.241h1.28l3.978 6.41h.046l-.046-1.588v-4.822h1.053v8.241h-1.098l-4.16-6.722h-.047l.046 1.59v5.132z"/>
      <path d="M143.788 46.816h2.544V29.644h-2.544v17.172zm22.928-10.986l-2.918 7.445h-.087l-3.029-7.445h-2.742l4.543 10.405-2.59 5.788h2.654l7-16.193h-2.83zm-14.437 9.035c-.833 0-1.996-.42-1.996-1.459 0-1.324 1.448-1.833 2.7-1.833 1.117 0 1.645.244 2.324.574-.198 1.592-1.558 2.718-3.028 2.718zm.308-9.412c-1.843 0-3.752.819-4.542 2.63l2.26.95c.482-.95 1.381-1.26 2.325-1.26 1.317 0 2.655.796 2.677 2.209v.177c-.461-.265-1.449-.662-2.655-.662-2.436 0-4.915 1.348-4.915 3.865 0 2.298 1.997 3.78 4.235 3.78 1.71 0 2.656-.774 3.246-1.68h.09v1.325h2.457v-6.584c0-3.048-2.261-4.75-5.178-4.75zm-15.732 2.467h-3.621v-5.886h3.62c1.904 0 2.984 1.586 2.984 2.943 0 1.33-1.08 2.943-2.983 2.943zm-.066-8.277h-6.1v17.173h2.545V40.31h3.555c2.821 0 5.595-2.057 5.595-5.333 0-3.276-2.774-5.334-5.595-5.334zm-33.261 15.225c-1.758 0-3.23-1.482-3.23-3.518 0-2.059 1.472-3.563 3.23-3.563 1.735 0 3.098 1.504 3.098 3.563 0 2.036-1.363 3.518-3.098 3.518zm2.922-8.077h-.087c-.572-.685-1.671-1.306-3.055-1.306-2.901 0-5.562 2.567-5.562 5.865 0 3.275 2.66 5.82 5.562 5.82 1.384 0 2.483-.62 3.055-1.328h.087v.84c0 2.237-1.187 3.43-3.098 3.43-1.56 0-2.528-1.127-2.923-2.08l-2.22.93c.637 1.549 2.329 3.452 5.143 3.452 2.99 0 5.517-1.77 5.517-6.086V35.839h-2.419v.952zm4.177 10.025h2.549V29.644h-2.549v17.172zm6.307-5.665c-.065-2.258 1.737-3.408 3.033-3.408 1.012 0 1.869.51 2.155 1.239l-5.188 2.169zm7.913-1.948c-.485-1.305-1.957-3.718-4.967-3.718-2.99 0-5.474 2.368-5.474 5.843 0 3.275 2.463 5.842 5.759 5.842 2.659 0 4.197-1.637 4.836-2.59l-1.978-1.327c-.66.973-1.56 1.615-2.858 1.615-1.296 0-2.22-.598-2.812-1.77l7.757-3.231-.263-.664zm-61.81-1.924v2.478h5.889c-.175 1.394-.637 2.412-1.34 3.12-.858.863-2.199 1.815-4.55 1.815-3.627 0-6.462-2.944-6.462-6.595 0-3.65 2.835-6.596 6.463-6.596 1.956 0 3.384.775 4.439 1.772l1.736-1.748c-1.473-1.416-3.428-2.502-6.175-2.502-4.969 0-9.145 4.073-9.145 9.074 0 5 4.176 9.073 9.145 9.073 2.68 0 4.702-.886 6.285-2.545 1.626-1.638 2.132-3.94 2.132-5.798a8.07 8.07 0 0 0-.132-1.548h-8.285zm15.112 7.589c-1.757 0-3.274-1.46-3.274-3.54 0-2.103 1.517-3.541 3.274-3.541 1.759 0 3.276 1.438 3.276 3.541 0 2.08-1.517 3.54-3.276 3.54zm0-9.383c-3.208 0-5.823 2.457-5.823 5.843 0 3.364 2.615 5.842 5.823 5.842 3.21 0 5.826-2.478 5.826-5.842 0-3.386-2.616-5.843-5.826-5.843zm12.707 9.383c-1.759 0-3.276-1.46-3.276-3.54 0-2.103 1.517-3.541 3.276-3.541 1.758 0 3.274 1.438 3.274 3.541 0 2.08-1.516 3.54-3.274 3.54zm0-9.383c-3.209 0-5.824 2.457-5.824 5.843 0 3.364 2.615 5.842 5.824 5.842 3.208 0 5.824-2.478 5.824-5.842 0-3.386-2.616-5.843-5.824-5.843z" fill="#FFF" fill-rule="nonzero"/>
    </g>
    <g fill-rule="nonzero">
      <path d="M23.368 12.131L3.176.514C2.315.021 1.337.212.694.801l16.927 17.104 5.746-5.774z" fill="url(#a)" transform="translate(12.625 16.724)"/>
      <path d="M.695.802A2.112 2.112 0 0 0 0 2.379v31.173c0 .59.232 1.095.586 1.471l17.036-17.119L.695.802z" fill="url(#b)" transform="translate(12.625 16.724)"/>
      <path d="M.586 35.023c.636.673 1.683.918 2.592.393L23.4 23.74l-5.777-5.837L.586 35.024z" fill="url(#c)" transform="translate(12.625 16.724)"/>
      <path d="M30.22 16.073l-6.853-3.942-5.745 5.773 5.776 5.837 6.824-3.94c1.429-.825 1.426-2.905-.002-3.728" fill="url(#d)" transform="translate(12.625 16.724)"/>
    </g>
  </g>
</svg>
