<svg width="139" height="39" viewBox="0 0 139 39" xmlns="http://www.w3.org/2000/svg">
  <title>
    apple-store.83ad9e2d copy 2
  </title>
  <g fill-rule="nonzero" fill="none">
    <rect fill="#343348" width="138.679" height="38.673" rx="5.283"/>
    <path d="M40.48 18.84c-.023-2.586 2.141-3.845 2.24-3.903-1.226-1.768-3.126-2.01-3.794-2.029-1.595-.166-3.143.945-3.956.945-.83 0-2.081-.929-3.43-.902-1.737.027-3.361 1.021-4.252 2.565-1.838 3.149-.467 7.775 1.294 10.32.881 1.247 1.91 2.638 3.258 2.59 1.319-.054 1.811-.832 3.402-.832 1.577 0 2.039.831 3.413.8 1.415-.022 2.306-1.252 3.156-2.51 1.019-1.427 1.427-2.836 1.444-2.908-.033-.01-2.747-1.035-2.775-4.136M37.852 11.145c.727-.859 1.225-2.027 1.087-3.212-1.053.044-2.37.687-3.129 1.527-.67.74-1.27 1.953-1.116 3.093 1.184.084 2.398-.563 3.158-1.408M59.104 28.096h-1.802l-.987-3.107h-3.432l-.94 3.107H50.19l3.4-10.577h2.1l3.415 10.577zm-3.087-4.41l-.893-2.762c-.094-.283-.272-.947-.532-1.993h-.032a85.15 85.15 0 0 1-.501 1.993l-.878 2.762h2.836zM68.35 24.382c0 1.3-.365 2.329-1.094 3.084-.653.672-1.464 1.007-2.432 1.007-1.044 0-1.796-.36-2.252-1.085V31.4H60.82v-8.236c0-.817-.023-1.654-.065-2.514h1.54l.099 1.214h.033c.584-.915 1.471-1.372 2.661-1.372.93 0 1.708.357 2.329 1.07.62.715.932 1.654.932 2.819zm-1.786.062c0-.744-.173-1.358-.52-1.841-.379-.503-.888-.756-1.525-.756-.433 0-.826.14-1.177.418a1.92 1.92 0 0 0-.69 1.094c-.054.21-.08.381-.08.517v1.277c0 .554.175 1.024.527 1.408.352.383.809.575 1.371.575.66 0 1.174-.248 1.541-.74.369-.493.553-1.144.553-1.952zM77.594 24.382c0 1.3-.364 2.329-1.093 3.084-.653.672-1.464 1.007-2.432 1.007-1.044 0-1.795-.36-2.252-1.085V31.4h-1.752v-8.236c0-.817-.022-1.654-.065-2.514h1.541l.098 1.214h.033c.583-.915 1.47-1.372 2.661-1.372.93 0 1.707.357 2.33 1.07.619.715.931 1.654.931 2.819zm-1.786.062c0-.744-.173-1.358-.52-1.841-.378-.503-.886-.756-1.524-.756-.432 0-.825.14-1.177.418a1.923 1.923 0 0 0-.69 1.094c-.053.21-.081.381-.081.517v1.277c0 .554.176 1.024.526 1.408.352.382.81.575 1.373.575.66 0 1.174-.248 1.541-.74.368-.493.552-1.144.552-1.952zM87.17 24.968c0 .901-.316 1.634-.947 2.2-.693.618-1.66.928-2.9.928-1.146 0-2.064-.22-2.757-.66l.394-1.415c.749.44 1.57.661 2.465.661.643 0 1.143-.145 1.5-.432.358-.29.538-.674.538-1.154 0-.431-.149-.793-.443-1.086-.295-.293-.783-.566-1.468-.816-1.864-.692-2.797-1.705-2.797-3.035 0-.87.33-1.581.986-2.137.658-.556 1.53-.834 2.615-.834.969 0 1.776.168 2.417.503l-.428 1.384c-.603-.325-1.284-.487-2.046-.487-.601 0-1.074.147-1.411.44a1.258 1.258 0 0 0-.429.96c0 .418.164.765.491 1.036.283.252.8.525 1.548.818.916.368 1.59.796 2.021 1.288.435.492.65 1.106.65 1.838M92.783 22.09h-1.86v3.792c0 .965.328 1.446.985 1.446.301 0 .551-.026.75-.08l.046 1.317c-.332.128-.77.192-1.311.192-.667 0-1.187-.21-1.563-.628-.375-.418-.563-1.119-.563-2.105v-3.937H88.16v-1.302h1.107v-1.43l1.657-.514v1.944h1.859v1.306M101.368 24.389c0 1.169-.34 2.129-1.021 2.88-.712.771-1.66 1.157-2.84 1.157-1.139 0-2.045-.37-2.72-1.11-.676-.74-1.013-1.674-1.013-2.8 0-1.18.35-2.145 1.044-2.895.697-.751 1.636-1.128 2.816-1.128 1.139 0 2.052.372 2.744 1.112.661.719.99 1.645.99 2.784zm-1.786.038c0-.696-.153-1.294-.461-1.794-.361-.604-.88-.905-1.548-.905-.69 0-1.22.3-1.58.905-.31.5-.462 1.108-.462 1.826 0 .698.153 1.297.462 1.795.373.605.892.907 1.566.907.658 0 1.174-.31 1.548-.922.316-.512.475-1.113.475-1.812zM107.311 22.173a3.198 3.198 0 0 0-.561-.047c-.627 0-1.112.227-1.453.687-.297.405-.444.917-.444 1.535v4.078h-1.782v-5.324c0-.895-.018-1.713-.052-2.447h1.552l.065 1.487h.05c.188-.511.484-.924.89-1.231a2.197 2.197 0 0 1 1.288-.418c.165 0 .314.013.446.032l.001 1.648M114.575 24.113c0 .304-.02.56-.063.768h-5.2c.02.753.272 1.33.754 1.727.438.355 1.006.532 1.701.532.77 0 1.473-.119 2.104-.36l.272 1.175c-.738.314-1.61.471-2.616.471-1.21 0-2.16-.347-2.85-1.042-.69-.695-1.035-1.63-1.035-2.799 0-1.149.32-2.106.964-2.869.673-.815 1.583-1.223 2.728-1.223 1.124 0 1.976.408 2.553 1.223.458.646.688 1.446.688 2.397zm-1.653-.439c.013-.503-.101-.935-.336-1.302-.3-.472-.762-.707-1.38-.707-.568 0-1.03.23-1.38.69-.29.367-.46.807-.514 1.317l3.61.002zM55.472 13.883h-.868l-.475-1.554h-1.652l-.453 1.554h-.845l1.637-5.289h1.01l1.646 5.289zm-1.486-2.205l-.43-1.381c-.045-.142-.128-.47-.257-.996h-.015c-.053.227-.128.557-.242.996l-.422 1.38h1.366zM59.764 9.916l-1.43 3.967h-.817l-1.385-3.967h.902l.646 2.098c.11.35.202.685.272 1.003h.023c.062-.285.155-.62.272-1.003l.637-2.098h.88M62.673 13.796l-.06-.437h-.022c-.246.352-.603.524-1.057.524-.648 0-1.11-.478-1.11-1.12 0-.938.775-1.423 2.115-1.423v-.07c0-.5-.254-.752-.752-.752-.358 0-.67.095-.945.283l-.164-.556c.336-.22.752-.329 1.244-.329.945 0 1.422.524 1.422 1.573v1.4c0 .384.015.682.052.908h-.723zm-.112-1.893c-.894 0-1.34.227-1.34.766 0 .4.23.595.55.595.41 0 .79-.329.79-.774v-.587zM64.717 8.75a.48.48 0 0 1 .496-.486c.277 0 .502.205.494.486 0 .298-.21.495-.51.495a.48.48 0 0 1-.48-.495zm.09 1.104h.81v4.029h-.81V9.854zM67.358 8.264h.826v5.619h-.826zM71.92 13.796l-.061-.437h-.022c-.245.352-.603.524-1.057.524-.648 0-1.11-.477-1.11-1.12 0-.937.774-1.423 2.115-1.423v-.07c0-.5-.253-.75-.752-.75-.358 0-.67.093-.946.281l-.164-.556c.335-.22.752-.329 1.244-.329.946 0 1.424.524 1.424 1.573v1.4c0 .384.015.68.05.907h-.722zm-.113-1.893c-.894 0-1.34.227-1.34.767 0 .399.23.594.55.594.41 0 .79-.328.79-.774v-.587zM75.926 13.883c-.535 0-.93-.227-1.187-.672h-.016l-.048.586h-.713c.023-.304.03-.649.03-1.023v-4.51h.84v2.295h.015c.249-.422.652-.632 1.203-.632.908 0 1.544.78 1.544 1.92 0 1.177-.706 2.036-1.668 2.036zm-.17-3.294c-.483 0-.924.421-.924 1.006v.664c0 .523.397.952.908.952.628 0 1.002-.515 1.002-1.334 0-.765-.39-1.288-.986-1.288zM78.915 8.264h.826v5.619h-.826zM84.17 12.111h-2.478c.017.721.481 1.129 1.169 1.129.367 0 .704-.063 1.001-.18l.129.588c-.352.156-.764.235-1.245.235-1.162 0-1.85-.753-1.85-1.92 0-1.169.704-2.047 1.758-2.047.946 0 1.544.722 1.544 1.811.002.149-.005.282-.029.384zm-.757-.603c0-.588-.29-1.004-.818-1.004-.474 0-.848.424-.903 1.004h1.721zM89.615 13.883c-1.083 0-1.785-.83-1.785-1.956 0-1.174.717-2.01 1.847-2.01 1.067 0 1.785.79 1.785 1.948 0 1.188-.74 2.018-1.847 2.018zm.032-3.35c-.595 0-.977.572-.977 1.37 0 .782.39 1.353.969 1.353s.968-.61.968-1.37c0-.773-.381-1.352-.96-1.352zM95.755 13.883h-.836V11.65c0-.687-.256-1.031-.76-1.031-.497 0-.839.44-.839.952v2.31h-.835v-2.774c0-.344-.01-.712-.032-1.112h.736l.04.6h.024c.222-.415.681-.68 1.193-.68.79 0 1.309.624 1.309 1.639v2.328M101.368 10.548h-.93v1.896c0 .482.164.723.492.723.149 0 .275-.016.376-.04l.023.659c-.164.064-.384.097-.656.097-.666 0-1.063-.378-1.063-1.366v-1.969h-.553v-.65h.553v-.716l.829-.257v.972h.929v.651M105.99 13.883h-.845v-2.196c0-.689-.259-1.038-.767-1.038-.437 0-.844.302-.844.912v2.322h-.845v-5.62h.845v2.314h.016c.266-.42.65-.626 1.143-.626.805 0 1.298.634 1.298 1.64v2.292M110.255 12.111h-2.477c.016.721.48 1.129 1.169 1.129.368 0 .704-.063 1-.18l.129.588c-.35.156-.764.235-1.246.235-1.161 0-1.849-.753-1.849-1.92 0-1.169.703-2.047 1.757-2.047.947 0 1.544.722 1.544 1.811.004.149-.004.282-.027.384zm-.757-.603c0-.588-.29-1.004-.817-1.004-.475 0-.849.424-.903 1.004h1.72z" fill="#FFF"/>
  </g>
</svg>
