<?xml version="1.0" encoding="UTF-8"?>
<svg width="75px" height="75px" viewBox="0 0 75 75" version="1.1" xmlns="http://www.w3.org/2000/svg" xmlns:xlink="http://www.w3.org/1999/xlink">
    <!-- Generator: Sketch 52.2 (67145) - http://www.bohemiancoding.com/sketch -->
    <title>Group 18</title>
    <desc>Created with Sketch.</desc>
    <g id="Page-1" stroke="none" stroke-width="1" fill="none" fill-rule="evenodd">
        <g id="Desktop-HD-Copy-2" transform="translate(-682.000000, -3000.000000)" fill-rule="nonzero">
            <g id="Section-Transfer" transform="translate(154.000000, 2852.000000)">
                <g id="FLash" transform="translate(341.000000, 148.000000)">
                    <g id="Group-12" transform="translate(187.000000, 0.000000)">
                        <g id="Group-18">
                            <rect id="Rectangle-6" stroke="#614AD9" stroke-width="3.91304348" x="1.95652174" y="1.95652174" width="71.0869565" height="71.0869565" rx="22.826087"></rect>
                            <path d="M39.0697106,17.7092298 C38.0472997,17.4030259 36.9452674,17.8129871 36.3749985,18.7116754 L22.4445637,40.2811048 C22.1080146,40.7999817 22.0836194,41.4606228 22.3809909,42.0027055 C22.6783624,42.5447882 23.2498189,42.8813928 23.8701806,42.8798819 L34.0229421,42.8798819 L34.0229421,55.6547461 C34.0268239,56.7115195 34.7278077,57.6400995 35.7462679,57.937603 C36.7647281,58.2351065 37.8584691,57.8307856 38.435163,56.9436048 L52.3698281,35.3657515 C52.7040734,34.8470454 52.7271963,34.1880231 52.4301209,33.647358 C52.1330456,33.1066928 51.5631833,32.7706716 50.9442112,32.7711863 L40.7914497,32.7711863 L40.7914497,20.0005341 C40.7943547,18.9401358 40.0922454,18.0057631 39.0697106,17.7092298 Z" id="Shape" fill="#614AD9"></path>
                        </g>
                    </g>
                </g>
            </g>
        </g>
    </g>
</svg>