<?xml version="1.0" encoding="UTF-8"?>
<svg width="183px" height="68px" viewBox="0 0 183 68" version="1.1" xmlns="http://www.w3.org/2000/svg" xmlns:xlink="http://www.w3.org/1999/xlink">
    <!-- Generator: Sketch 52.2 (67145) - http://www.bohemiancoding.com/sketch -->
    <title>apple-store.83ad9e2d</title>
    <desc>Created with Sketch.</desc>
    <g id="Page-1" stroke="none" stroke-width="1" fill="none" fill-rule="evenodd">
        <g id="Desktop-HD-Copy-2" transform="translate(-527.000000, -6225.000000)" fill-rule="nonzero">
            <g id="Section-DOwnload" transform="translate(181.000000, 5925.000000)">
                <g id="btn-download" transform="translate(346.500000, 300.750000)">
                    <g id="apple-store.83ad9e2d">
                        <rect id="Rectangle-Copy-8" fill="#000000" x="0" y="0" width="182.25" height="66.75" rx="3.375"></rect>
                        <path d="M40.8356356,32.5185771 C40.795554,28.0541009 44.4830611,25.8821187 44.6516802,25.7809996 C42.5632907,22.72942 39.3263561,22.312477 38.188868,22.2792323 C35.4702299,21.9924974 32.833137,23.9096042 31.4482487,23.9096042 C30.0357179,23.9096042 27.9031004,22.3069362 25.604628,22.3540328 C22.6468824,22.3997441 19.87987,24.115998 18.3622977,26.7811088 C15.2304045,32.2152199 17.5661943,40.2008561 20.5667857,44.5933024 C22.0677724,46.7458918 23.8216879,49.1464309 26.117396,49.0619342 C28.3633477,48.9705114 29.202297,47.6268744 31.9126424,47.6268744 C34.5981095,47.6268744 35.3859203,49.0619342 37.7272385,49.0065264 C40.1376629,48.9705114 41.6552352,46.847011 43.1037012,44.6750287 C44.838267,42.212156 45.5348575,39.7811428 45.5625,39.6564754 C45.507215,39.6384679 40.8826278,37.8695767 40.8356356,32.5185771" id="Fill-2-Copy-2" fill="#FFFFFF"></path>
                        <path d="M36.3582079,19.2360973 C37.5979257,17.7542284 38.4461538,15.7381816 38.2106924,13.6923077 C36.416364,13.7682314 34.1723895,14.8786163 32.8801893,16.3279465 C31.7369254,17.6050925 30.7156476,19.6984187 30.9794777,21.6670131 C32.995083,21.810726 35.0645892,20.6949179 36.3582079,19.2360973" id="Fill-3-Copy-2" fill="#FFFFFF"></path>
                        <path d="M72.5625,48.4935897 L69.4925567,48.4935897 L67.8109146,43.1310779 L61.9657211,43.1310779 L60.3638353,48.4935897 L57.375,48.4935897 L63.1674731,30.2371795 L66.7443426,30.2371795 L72.5625,48.4935897 Z M67.3039884,40.8812648 L65.7832112,36.1155021 C65.6223463,35.6271281 65.319543,34.4802721 64.8761518,32.6749343 L64.8220792,32.6749343 C64.6436413,33.4513942 64.3584111,34.5982501 63.9677402,36.1155021 L62.4726467,40.8812648 L67.3039884,40.8812648 Z" id="Fill-4-Copy-2" fill="#FFFFFF"></path>
                        <path d="M88.3125,42.0831169 C88.3125,44.3284793 87.6921609,46.1033061 86.4500827,47.4062216 C85.3382334,48.5660503 83.9561237,49.1452768 82.3079543,49.1452768 C80.5281553,49.1452768 79.2482681,48.5220236 78.4710939,47.2713898 L78.4710939,54.1987179 L75.4856246,54.1987179 L75.4856246,39.983593 C75.4856246,38.5733624 75.4478162,37.12736 75.375,35.6442102 L78.0005886,35.6442102 L78.1672258,37.7382307 L78.2232384,37.7382307 C79.2188618,36.1601482 80.7298003,35.3717949 82.7574548,35.3717949 C84.3426101,35.3717949 85.6659066,35.986793 86.7245439,37.2181651 C87.7817812,38.4522889 88.3125,40.0730223 88.3125,42.0831169 Z M85.2710181,42.190432 C85.2710181,40.9054023 84.9769521,39.8460095 84.3860199,39.0122537 C83.7404753,38.144102 82.8736807,37.7079623 81.7870371,37.7079623 C81.050472,37.7079623 80.3811223,37.9501092 79.7831882,38.4288997 C79.183854,38.9090661 78.7917656,39.5378226 78.6083248,40.3179209 C78.5159038,40.6797654 78.4696939,40.9755699 78.4696939,41.2094618 L78.4696939,43.4135492 C78.4696939,44.3711302 78.7693607,45.1814968 79.3686954,45.8446492 C79.9680296,46.5050499 80.7466039,46.8366261 81.7044188,46.8366261 C82.8288709,46.8366261 83.7040669,46.4087415 84.3300073,45.5598514 C84.9573478,44.7082097 85.2710181,43.5855285 85.2710181,42.190432 Z" id="Fill-5-Copy-2" fill="#FFFFFF"></path>
                        <path d="M104.0625,42.0831169 C104.0625,44.3284793 103.442228,46.1033061 102.200284,47.4062216 C101.087155,48.5660503 99.7065951,49.1452768 98.0572039,49.1452768 C96.2789974,49.1452768 94.9992491,48.5220236 94.2207587,47.2713898 L94.2207587,54.1987179 L91.2356128,54.1987179 L91.2356128,39.983593 C91.2356128,38.5733624 91.1978083,37.12736 91.125,35.6442102 L93.7503045,35.6442102 L93.9169238,37.7382307 L93.9729302,37.7382307 C94.9670454,36.1601482 96.4778209,35.3717949 98.506656,35.3717949 C100.090239,35.3717949 101.414793,35.986793 102.474716,37.2181651 C103.530439,38.4522889 104.0625,40.0730223 104.0625,42.0831169 Z M101.019947,42.190432 C101.019947,40.9054023 100.724513,39.8460095 100.133645,39.0122537 C99.4895696,38.144102 98.6242697,37.7079623 97.5377436,37.7079623 C96.8012584,37.7079623 96.1319807,37.9501092 95.5313111,38.4288997 C94.9334417,38.9090661 94.5413961,39.5378226 94.3579749,40.3179209 C94.2669641,40.6797654 94.2179586,40.9755699 94.2179586,41.2094618 L94.2179586,43.4135492 C94.2179586,44.3711302 94.5189934,45.1814968 95.1154628,45.8446492 C95.7147322,46.5036741 96.4932221,46.8366261 97.4537336,46.8366261 C98.5794643,46.8366261 99.4545658,46.4087415 100.079038,45.5598514 C100.706311,44.7082097 101.019947,43.5855285 101.019947,42.190432 Z" id="Fill-6-Copy-2" fill="#FFFFFF"></path>
                        <path d="M120.375,43.0950362 C120.375,44.6504352 119.836624,45.9159144 118.7626,46.8928478 C117.582263,47.9590931 115.934426,48.4935897 113.821814,48.4935897 C111.870033,48.4935897 110.305337,48.1143582 109.125,47.3545211 L109.796947,44.9128744 C111.071329,45.6727115 112.471105,46.0533171 113.994912,46.0533171 C115.090744,46.0533171 115.942603,45.8032442 116.55049,45.3072202 C117.161104,44.8084483 117.467773,44.1447931 117.467773,43.3148806 C117.467773,42.5715317 117.21426,41.9477233 116.712685,41.4407072 C116.209747,40.9364392 115.378332,40.4637738 114.211624,40.0323292 C111.035892,38.8382994 109.446662,37.0905366 109.446662,34.7945368 C109.446662,33.2940989 110.008208,32.0657185 111.127211,31.1052733 C112.247577,30.1462022 113.733221,29.6666667 115.581415,29.6666667 C117.231978,29.6666667 118.607221,29.9565864 119.698964,30.535052 L118.969772,32.9231116 C117.942088,32.3625084 116.782197,32.0822068 115.484644,32.0822068 C114.459686,32.0822068 113.654168,32.3364018 113.080355,32.8420439 C112.596499,33.2940989 112.3498,33.8450839 112.3498,34.4991209 C112.3498,35.2204853 112.62921,35.8195612 113.186667,36.2881046 C113.66916,36.7222972 114.549643,37.1935886 115.822662,37.6992307 C117.384632,38.3340313 118.530894,39.0732581 119.266901,39.922407 C120.006997,40.7715559 120.375,41.830931 120.375,43.0950362" id="Fill-7-Copy-2" fill="#FFFFFF"></path>
                        <path d="M129.9375,38.1283683 L126.770249,38.1283683 L126.770249,44.6730643 C126.770249,46.3376844 127.328224,47.1678873 128.44687,47.1678873 C128.960369,47.1678873 129.386264,47.1229355 129.723205,47.0288178 L129.802723,49.3030961 C129.236662,49.5236407 128.491346,49.6346154 127.569474,49.6346154 C126.433307,49.6346154 125.547824,49.2721918 124.906287,48.5515588 C124.267446,47.829521 123.948025,46.6200376 123.948025,44.9174895 L123.948025,38.1227493 L122.0625,38.1227493 L122.0625,35.875161 L123.948025,35.875161 L123.948025,33.4070281 L126.770249,32.5192308 L126.770249,35.875161 L129.9375,35.875161 L129.9375,38.1283683" id="Fill-8-Copy-2" fill="#FFFFFF"></path>
                        <path d="M144.5625,42.0948165 C144.5625,44.1128174 143.983003,45.7696305 142.822634,47.0652555 C141.609958,48.3978202 139.996729,49.0641026 137.985697,49.0641026 C136.044865,49.0641026 134.501835,48.4251829 133.351101,47.1473437 C132.200367,45.8695044 131.625,44.2578399 131.625,42.3137183 C131.625,40.2792997 132.221014,38.6129097 133.404784,37.3172846 C134.591306,36.0216596 136.190771,35.3717949 138.201803,35.3717949 C140.141258,35.3717949 141.696677,36.0134508 142.876317,37.2899219 C144.002274,38.5308215 144.5625,40.1301728 144.5625,42.0948165 Z M141.520488,42.1618552 C141.520488,40.9592634 141.258957,39.9276886 140.73452,39.0643947 C140.119235,38.0218748 139.236914,37.501983 138.097191,37.501983 C136.923057,37.501983 136.018712,38.0218748 135.40618,39.0643947 C134.87899,39.9276886 134.618836,40.9770491 134.618836,42.2165806 C134.618836,43.4205405 134.87899,44.4548515 135.40618,45.3140411 C136.040736,46.357929 136.92581,46.879189 138.073791,46.879189 C139.194243,46.879189 140.073811,46.3456158 140.711119,45.2894146 C141.249322,44.4055986 141.520488,43.3671832 141.520488,42.1618552 Z" id="Fill-9-Copy-2" fill="#FFFFFF"></path>
                        <path d="M154.6875,38.2699115 C154.387084,38.2153883 154.065311,38.1888257 153.730724,38.1888257 C152.662894,38.1888257 151.837106,38.5816722 151.256206,39.3757533 C150.750767,40.0747684 150.498759,40.9583235 150.498759,42.0250206 L150.498759,49.0641026 L147.463274,49.0641026 L147.463274,39.8734521 C147.463274,38.3286288 147.433375,36.9180163 147.375,35.6500029 L150.018947,35.6500029 L150.130001,38.2167863 L150.214004,38.2167863 C150.535777,37.3346293 151.039793,36.6230319 151.731746,36.0917804 C152.409463,35.6108581 153.138435,35.3717949 153.925781,35.3717949 C154.206264,35.3717949 154.459697,35.3927653 154.684653,35.426318 L154.6875,38.2699115" id="Fill-10-Copy-2" fill="#FFFFFF"></path>
                        <path d="M167.0625,41.6195015 C167.0625,42.1432285 167.027871,42.5846947 166.954459,42.9452712 L158.096469,42.9452712 C158.128327,44.2449916 158.559107,45.2403471 159.380497,45.9258536 C160.127089,46.5373255 161.093919,46.8444324 162.278216,46.8444324 C163.589946,46.8444324 164.78671,46.6387804 165.862966,46.2219924 L166.325604,48.2510918 C165.067894,48.792642 163.581635,49.0641026 161.869598,49.0641026 C159.808506,49.0641026 158.190659,48.4635989 157.013287,47.2653334 C155.840071,46.065697 155.25,44.4520146 155.25,42.4338833 C155.25,40.4513983 155.795747,38.7993276 156.89278,37.481784 C158.039678,36.0751246 159.589653,35.3717949 161.539935,35.3717949 C163.455587,35.3717949 164.905832,36.0751246 165.889284,37.481784 C166.670504,38.5964177 167.0625,39.9783988 167.0625,41.6195015 Z M164.246504,40.8613312 C164.267281,39.99348 164.073361,39.2476489 163.673055,38.6142408 C163.161937,37.799859 162.375176,37.3940392 161.321082,37.3940392 C160.354252,37.3940392 159.568876,37.7902619 158.970494,38.5854495 C158.478769,39.2174866 158.186503,39.9783988 158.096469,40.8585892 L164.246504,40.8613312 Z" id="Fill-11-Copy-2" fill="#FFFFFF"></path>
                        <path d="M66.375,23.9615385 L64.8960823,23.9615385 L64.0871128,21.2807126 L61.2735947,21.2807126 L60.5016973,23.9615385 L59.0625,23.9615385 L61.8508626,14.8333333 L63.5720738,14.8333333 L66.375,23.9615385 Z M63.8434952,20.15591 L63.1113188,17.7723335 C63.0345262,17.5281146 62.8928572,16.9601312 62.6743958,16.0530323 L62.6479155,16.0530323 C62.5578829,16.4451782 62.429454,17.0145571 62.2361486,17.7723335 L61.5172123,20.15591 L63.8434952,20.15591 Z" id="Fill-12-Copy-2" fill="#FFFFFF"></path>
                        <path d="M73.6875,17.1153846 L71.2496278,23.9615385 L69.8587031,23.9615385 L67.5,17.1153846 L69.0369789,17.1153846 L70.1371609,20.7358909 C70.3227994,21.3412442 70.4811381,21.9190154 70.5998925,22.467753 L70.6394773,22.467753 C70.7459462,21.9756313 70.9042854,21.39786 71.1022089,20.7358909 L72.1887407,17.1153846 L73.6875,17.1153846" id="Fill-13-Copy-2" fill="#FFFFFF"></path>
                        <path d="M78.6426981,23.8126485 L78.5407686,23.0570669 L78.5028718,23.0570669 C78.0846992,23.6651501 77.4757356,23.9615385 76.7021169,23.9615385 C75.5991866,23.9615385 74.8125,23.1377736 74.8125,22.0301438 C74.8125,20.4104441 76.1310501,19.5727642 78.4140103,19.5727642 L78.4140103,19.4517042 C78.4140103,18.587586 77.9827697,18.1548311 77.133357,18.1548311 C76.5243934,18.1548311 75.9912238,18.317636 75.5233931,18.6418543 L75.2450473,17.6831145 C75.8161136,17.3046279 76.5257001,17.1153846 77.363352,17.1153846 C78.9733159,17.1153846 79.7861385,18.0198562 79.7861385,19.8301908 L79.7861385,22.247217 C79.7861385,22.9095685 79.8122739,23.42303 79.875,23.81404 L78.6426981,23.8126485 Z M78.4519071,20.5440275 C76.929498,20.5440275 76.1689468,20.936429 76.1689468,21.867339 C76.1689468,22.5561289 76.5622901,22.8928706 77.107221,22.8928706 C77.8050467,22.8928706 78.4519071,22.3265322 78.4519071,21.5570357 L78.4519071,20.5440275 Z" id="Fill-14-Copy-2" fill="#FFFFFF"></path>
                        <path d="M82.125,15.1032379 C82.125,14.6173927 82.4950974,14.2628205 82.9692439,14.2628205 C83.4420729,14.2628205 83.8253413,14.6173927 83.8121704,15.1032379 C83.8121704,15.6161497 83.4552439,15.9571886 82.942902,15.9571886 C82.4832439,15.9571886 82.125,15.5890831 82.125,15.1032379 Z M82.2790974,17.0087254 L83.6593897,17.0087254 L83.6593897,23.9615385 L82.2790974,23.9615385 L82.2790974,17.0087254 Z" id="Fill-15-Copy-2" fill="#FFFFFF"></path>
                        <polygon id="Fill-16-Copy-2" fill="#FFFFFF" points="86.625 14.2628205 88.03125 14.2628205 88.03125 23.9615385 86.625 23.9615385"></polygon>
                        <path d="M94.3946764,23.8126788 L94.2913868,23.0572507 L94.2547781,23.0572507 C93.8363895,23.6652103 93.2271114,23.9615385 92.4530929,23.9615385 C91.3495933,23.9615385 90.5625,23.137941 90.5625,22.0305363 C90.5625,20.4111656 91.8817313,19.5736561 94.1658705,19.5736561 L94.1658705,19.4526206 C94.1658705,18.5886781 93.7344071,18.1560111 92.8845557,18.1560111 C92.2752776,18.1560111 91.7418324,18.3187829 91.2737604,18.6429353 L90.9939628,17.6829991 C91.565325,17.3045894 92.2752776,17.1153846 93.1133621,17.1153846 C94.7241574,17.1153846 95.5387074,18.0196724 95.5387074,19.8296391 L95.5387074,22.2461741 C95.5387074,22.908391 95.5648569,23.4217482 95.625,23.8126788 L94.3946764,23.8126788 Z M94.2037869,20.544722 C92.6805915,20.544722 91.9196477,20.9370438 91.9196477,21.8677645 C91.9196477,22.5564144 92.3131941,22.8930877 92.8584068,22.8930877 C93.5565924,22.8930877 94.2037869,22.3268645 94.2037869,21.5575243 L94.2037869,20.544722 Z" id="Fill-17-Copy-2" fill="#FFFFFF"></path>
                        <path d="M101.220036,23.9615385 C100.308868,23.9615385 99.6360474,23.5700917 99.1988499,22.8024674 L99.1716103,22.8024674 L99.0898909,23.8130108 L97.875,23.8130108 C97.9131358,23.2883055 97.9267556,22.6941949 97.9267556,22.0487242 L97.9267556,14.2628205 L99.3568404,14.2628205 L99.3568404,18.2244837 L99.3827177,18.2244837 C99.8062954,17.4971146 100.492736,17.13343 101.431144,17.13343 C102.978359,17.13343 104.0625,18.4812839 104.0625,20.4468464 C104.0625,22.479038 102.858505,23.9615385 101.220036,23.9615385 Z M100.929934,18.2758438 C100.108656,18.2758438 99.3568404,19.0032129 99.3568404,20.0137563 L99.3568404,21.1589463 C99.3568404,22.0612172 100.032385,22.8024674 100.904056,22.8024674 C101.973214,22.8024674 102.610623,21.9140776 102.610623,20.4995945 C102.609262,19.1795028 101.947336,18.2758438 100.929934,18.2758438 Z" id="Fill-18-Copy-2" fill="#FFFFFF"></path>
                        <polygon id="Fill-19-Copy-2" fill="#FFFFFF" points="106.3125 14.2628205 107.71875 14.2628205 107.71875 23.9615385 106.3125 23.9615385"></polygon>
                        <path d="M115.263479,20.9037757 L111.043601,20.9037757 C111.07177,22.1489112 111.863165,22.8516528 113.034161,22.8516528 C113.66057,22.8516528 114.233325,22.7428952 114.740354,22.5407175 L114.958994,23.5557888 C114.360753,23.8262886 113.657887,23.9615385 112.838324,23.9615385 C110.858496,23.9615385 109.6875,22.6620241 109.6875,20.6472192 C109.6875,18.6310199 110.886664,17.1153846 112.681387,17.1153846 C114.293685,17.1153846 115.311768,18.3605201 115.311768,20.2414695 C115.315792,20.498026 115.303719,20.7280902 115.263479,20.9037757 Z M113.975786,19.8622122 C113.975786,18.8471409 113.479487,18.1304559 112.580785,18.1304559 C111.773294,18.1304559 111.137496,18.8610841 111.043601,19.8622122 L113.975786,19.8622122 Z" id="Fill-20-Copy-2" fill="#FFFFFF"></path>
                        <path d="M124.54086,23.9615385 C122.695723,23.9615385 121.5,22.5296904 121.5,20.5857723 C121.5,18.5597561 122.721164,17.1153846 124.64664,17.1153846 C126.463657,17.1153846 127.6875,18.4790494 127.6875,20.4786273 C127.6875,22.5296904 126.426166,23.9615385 124.54086,23.9615385 Z M124.594419,18.1812696 C123.580799,18.1812696 122.931386,19.1664478 122.931386,20.5440275 C122.931386,21.8951689 123.59419,22.8803471 124.58103,22.8803471 C125.56787,22.8803471 126.230672,21.8269856 126.230672,20.5161976 C126.230672,19.1803627 125.581259,18.1812696 124.594419,18.1812696 Z" id="Fill-21-Copy-2" fill="#FFFFFF"></path>
                        <path d="M135,23.9615385 L133.576397,23.9615385 L133.576397,20.1103992 C133.576397,18.9243393 133.139517,18.3298872 132.280728,18.3298872 C131.435549,18.3298872 130.853042,19.0893068 130.853042,19.9724521 L130.853042,23.9615385 L129.42944,23.9615385 L129.42944,19.1717906 C129.42944,18.5787607 129.413108,17.9430667 129.375,17.2533316 L130.629839,17.2533316 L130.696528,18.2886453 L130.737358,18.2886453 C131.117076,17.5718897 131.898288,17.1153846 132.770687,17.1153846 C134.115352,17.1153846 135,18.1919402 135,19.9440095 L135,23.9615385" id="Fill-22-Copy-2" fill="#FFFFFF"></path>
                        <path d="M144.5625,18.2059224 L142.979537,18.2059224 L142.979537,21.4781073 C142.979537,22.311157 143.258237,22.7269674 143.817011,22.7269674 C144.069626,22.7269674 144.285173,22.6983894 144.456786,22.6569512 L144.4966,23.794357 C144.216527,23.9058113 143.841723,23.9615385 143.379053,23.9615385 C142.243658,23.9615385 141.568188,23.3099593 141.568188,21.6038506 L141.568188,18.2059224 L140.625,18.2059224 L140.625,17.0828057 L141.568188,17.0828057 L141.568188,15.8482346 L142.979537,15.4038462 L142.979537,17.0813767 L144.5625,17.0813767 L144.5625,18.2059224" id="Fill-23-Copy-2" fill="#FFFFFF"></path>
                        <path d="M152.4375,23.9615385 L150.996918,23.9615385 L150.996918,20.1722719 C150.996918,18.9824873 150.556091,18.3805465 149.690918,18.3805465 C148.945221,18.3805465 148.253082,18.9007249 148.253082,19.9537688 L148.253082,23.9615385 L146.8125,23.9615385 L146.8125,14.2628205 L148.253082,14.2628205 L148.253082,18.2564932 L148.280548,18.2564932 C148.732361,17.5319087 149.387421,17.1752553 150.226502,17.1752553 C151.598419,17.1752553 152.4375,18.2691804 152.4375,20.0073373 L152.4375,23.9615385" id="Fill-24-Copy-2" fill="#FFFFFF"></path>
                        <path d="M159.701914,20.9037757 L155.482671,20.9037757 C155.509502,22.1489112 156.30103,22.8516528 157.473563,22.8516528 C158.101419,22.8516528 158.672928,22.7428952 159.177359,22.5407175 L159.397377,23.5557888 C158.800378,23.8262886 158.096053,23.9615385 157.275011,23.9615385 C155.296192,23.9615385 154.125,22.6620241 154.125,20.6472192 C154.125,18.6310199 155.323024,17.1153846 157.118047,17.1153846 C158.731958,17.1153846 159.748869,18.3605201 159.748869,20.2414695 C159.754235,20.498026 159.740819,20.7280902 159.701914,20.9037757 Z M158.412664,19.8622122 C158.412664,18.8471409 157.918965,18.1304559 157.020112,18.1304559 C156.212486,18.1304559 155.575239,18.8610841 155.482671,19.8622122 L158.412664,19.8622122 Z" id="Fill-25-Copy-2" fill="#FFFFFF"></path>
                    </g>
                </g>
            </g>
        </g>
    </g>
</svg>